<?xml version="1.0" standalone="no"?>
<!DOCTYPE svg PUBLIC "-//W3C//DTD SVG 20010904//EN"
 "http://www.w3.org/TR/2001/REC-SVG-20010904/DTD/svg10.dtd">
<svg version="1.0" xmlns="http://www.w3.org/2000/svg"
 width="700.000000pt" height="700.000000pt" viewBox="0 0 700.000000 700.000000"
 preserveAspectRatio="xMidYMid meet">
<metadata>
Created by potrace 1.14, written by Peter Selinger 2001-2017
</metadata>
<g transform="translate(0.000000,700.000000) scale(0.100000,-0.100000)"
fill="#000000" stroke="none">
<path d="M41 6960 c-4 -3 -7 -727 -7 -1610 1 -1436 -1 -1607 -14 -1620 -9 -8
-11 -12 -4 -7 7 4 14 1 18 -8 3 -9 2 -13 -4 -10 -12 7 -8 -48 5 -57 6 -5 5 -8
-3 -8 -7 0 -11 -4 -7 -9 3 -5 7 -23 9 -40 3 -26 1 -29 -11 -20 -11 10 -11 14
-1 20 8 6 9 9 2 9 -8 0 -11 16 -9 45 1 25 -1 47 -4 50 -9 5 -8 -112 1 -121 10
-10 10 -27 0 -20 -4 2 -8 -4 -8 -14 0 -17 2 -17 16 -5 14 13 15 11 14 -12 0
-15 -7 -29 -15 -31 -11 -3 -11 -1 1 8 12 9 12 11 1 8 -8 -2 -15 -11 -17 -20
-1 -10 3 -15 11 -12 7 3 16 0 21 -7 4 -7 3 -10 -4 -5 -14 8 -11 -46 3 -56 6
-5 5 -8 -3 -8 -7 0 -11 -4 -7 -9 3 -5 7 -23 9 -40 3 -26 1 -29 -11 -20 -11 10
-11 14 -1 20 8 6 9 9 2 9 -8 0 -11 16 -9 45 1 25 -1 47 -4 50 -9 5 -8 -112 2
-121 9 -10 9 -27 -1 -20 -4 2 -8 -4 -8 -14 0 -17 2 -17 16 -5 14 13 15 11 14
-12 0 -15 -7 -29 -15 -31 -11 -3 -11 -1 1 8 12 9 12 11 1 8 -8 -2 -15 -11 -17
-20 -1 -10 3 -15 11 -12 7 3 16 0 21 -7 4 -7 3 -10 -4 -5 -14 8 -11 -46 3 -56
6 -5 5 -8 -3 -8 -7 0 -11 -4 -7 -9 3 -5 7 -23 9 -40 3 -26 1 -29 -11 -20 -11
10 -11 14 -1 20 8 6 9 9 2 9 -8 0 -11 16 -9 45 1 25 -1 47 -4 50 -9 5 -8 -112
1 -121 10 -10 10 -27 0 -20 -4 2 -8 -4 -8 -14 0 -17 2 -17 16 -5 14 13 15 11
14 -12 0 -15 -7 -29 -15 -31 -11 -3 -11 -1 1 8 12 9 12 11 1 8 -8 -2 -15 -11
-17 -20 -1 -10 3 -15 11 -12 7 3 16 0 21 -7 5 -8 3 -10 -6 -4 -10 6 -12 4 -7
-8 3 -9 1 -19 -5 -23 -6 -4 -8 -3 -4 4 3 6 2 13 -3 16 -6 4 -10 -69 -11 -185
0 -114 3 -188 9 -185 5 3 13 0 18 -7 5 -7 8 -530 8 -1277 -1 -696 0 -1270 2
-1275 2 -7 1099 -10 3456 -9 1898 1 3457 2 3462 3 7 1 10 404 11 1234 0 1152
1 1232 17 1231 15 -2 17 16 17 198 0 109 -4 197 -9 194 -4 -3 -13 6 -20 20 -6
15 -7 23 -1 19 5 -3 10 -1 10 5 0 6 3 9 8 7 4 -3 7 19 7 49 1 30 -2 54 -6 54
-4 0 -6 -18 -5 -40 1 -22 -2 -46 -7 -53 -5 -7 -7 4 -5 31 2 23 0 42 -3 42 -4
0 -2 13 4 29 6 17 15 27 21 24 5 -3 6 -1 2 6 -4 6 -11 9 -16 6 -4 -3 -11 2
-14 11 -3 8 -2 12 4 9 6 -3 10 0 10 7 0 9 3 9 10 -2 7 -11 8 -7 6 15 -2 17 -8
30 -14 30 -6 0 -14 4 -19 9 -5 5 -3 6 5 2 6 -4 12 -2 12 4 0 6 3 9 8 6 4 -2 8
11 8 30 0 19 -4 34 -8 34 -5 0 -7 -8 -4 -17 7 -22 -8 -50 -18 -34 -4 6 -4 11
1 11 4 0 8 16 9 35 0 18 -3 32 -8 29 -4 -3 -5 2 -2 11 5 12 9 13 20 4 12 -10
13 -9 8 5 -3 9 -10 16 -16 16 -5 0 -7 4 -3 9 3 5 0 13 -6 17 -8 5 -7 9 2 14
10 7 10 12 1 23 -10 12 -9 16 3 20 9 4 12 13 8 23 -4 10 -2 15 3 12 5 -4 10 9
10 28 0 19 -4 34 -8 34 -5 0 -7 -8 -4 -17 7 -22 -8 -50 -18 -34 -4 6 -4 11 1
11 4 0 8 16 9 35 0 18 -2 32 -5 30 -3 -1 -6 774 -6 1723 l0 1727 -3458 0
c-1902 0 -3461 -2 -3466 -5z m6943 -3815 c-4 -8 -11 -12 -16 -9 -6 4 -5 10 3
15 19 12 19 11 13 -6z"/>
<path d="M6984 3366 c0 -13 4 -22 8 -20 9 6 6 44 -3 44 -4 0 -6 -11 -5 -24z"/>
</g>
</svg>
